# xmcd CD database file
#
# Track frame offsets:
#	150
#	8802
#	36217
#	55305
#	63029
#	102487
#	112853
#	131696
#	143266
#	168728
#	178862
#	201126
#
# Disc length: 3072 seconds
#
# Revision: 0
# Processed by: cddbd v1.5.1PL0 Copyright (c) Steve Scherf et al.
# Submitted via: CDex 1.50
#
DISCID=a00bfe0c
DTITLE=disappearhear - disappearhear
DYEAR=2004
DGENRE=Jazz
TTITLE0=I cut in two
TTITLE1=little girl lost
TTITLE2=although
TTITLE3=oz
TTITLE4=ballad of the sad young men
TTITLE5=alone...
TTITLE6=together
TTITLE7=when my desire
TTITLE8=traceless
TTITLE9=coral
TTITLE10=remember
TTITLE11=echo
EXTD=YEAR: 2004
EXTT0=
EXTT1=
EXTT2=
EXTT3=
EXTT4=
EXTT5=
EXTT6=
EXTT7=
EXTT8=
EXTT9=
EXTT10=
EXTT11=
PLAYORDER=
